<svg width="107" height="107" viewBox="0 0 107 107" fill="none" xmlns="http://www.w3.org/2000/svg">
<g clip-path="url(#clip0_13_2)">
<path d="M18.9479 1.33777C8.47083 1.33777 0 9.8086 0 20.2857V86.7149C0 97.1919 8.47083 105.663 18.9479 105.663H88.0521C98.5292 105.663 107 97.1919 107 86.7149V20.2857C107 9.8086 98.5292 1.33777 88.0521 1.33777H18.9479ZM69.3717 24.209H78.4221C78.645 24.1644 78.8233 24.3428 78.8679 24.5211V67.0536C78.8679 67.8561 78.9125 68.7478 78.9571 69.7286C79.0462 70.6648 79.0908 71.5565 79.1354 72.3144C79.1354 72.6265 79.0017 72.894 78.6896 73.0278C76.3713 74.0086 73.9192 74.7219 71.4225 75.1678C69.1933 75.569 66.875 75.7919 64.5567 75.7919C61.2575 75.8365 57.9583 75.1678 54.9713 73.7857C52.1625 72.4928 49.8442 70.3528 48.2392 67.7223C46.5896 65.0028 45.7871 61.6144 45.7871 57.5573C45.7425 54.2582 46.5896 51.0036 48.2392 48.1503C49.9333 45.2523 52.3854 42.8448 55.3279 41.2398C58.4487 39.5011 62.1937 38.654 66.6075 38.654C66.8304 38.654 67.1425 38.654 67.5437 38.6986C67.945 38.7432 68.3908 38.7432 68.9258 38.7878V24.6994C68.9258 24.3874 69.0596 24.209 69.3717 24.209ZM29.5588 28.0432H38.2525C38.52 27.9986 38.7875 28.1769 38.8321 28.489C38.8767 28.5336 38.8767 28.5782 38.8767 28.6228V74.3653C38.8767 74.8557 38.6538 75.0786 38.2525 75.0786H29.5142C29.1129 75.0786 28.9346 74.8557 28.9346 74.3653V28.6228C28.9346 28.2215 29.1575 28.0432 29.5588 28.0432ZM66.2508 46.9465C64.5121 46.9465 62.7733 47.3032 61.2129 48.1057C59.6971 48.8636 58.4042 49.9782 57.4233 51.4048C56.4425 52.8315 55.9521 54.7486 55.9521 57.0669C55.9075 58.6273 56.175 60.1878 56.71 61.659C57.1558 62.8628 57.8246 63.9328 58.7163 64.8244C59.5633 65.6269 60.5888 66.2511 61.7479 66.6078C62.9517 67.009 64.2 67.1873 65.4483 67.1873C66.1171 67.1873 66.7413 67.1428 67.3208 67.0982C67.9004 67.1428 68.4354 67.0536 68.9258 66.8753V47.2586C68.0496 47.0493 67.1517 46.9445 66.2508 46.9465Z" fill="black"/>
</g>
<defs>
<clipPath id="clip0_13_2">
<rect width="107" height="107" fill="white"/>
</clipPath>
</defs>
</svg>
